<svg id="svg" version="1.1" xmlns="http://www.w3.org/2000/svg" xmlns:xlink="http://www.w3.org/1999/xlink" width="400" height="292.37668161434976" viewBox="0, 0, 400,292.37668161434976"><g id="svgg"><path id="path0" d="M157.310 70.906 C 157.310 71.308,157.194 71.637,157.052 71.637 C 156.910 71.637,156.548 72.426,156.248 73.389 C 155.948 74.353,155.605 75.142,155.486 75.144 C 155.367 75.145,155.186 75.673,155.083 76.316 C 154.980 76.959,154.781 77.485,154.641 77.485 C 154.501 77.485,154.385 77.716,154.384 77.997 C 154.383 78.279,154.185 78.888,153.943 79.352 C 153.701 79.815,153.422 80.703,153.322 81.325 C 153.223 81.947,153.033 82.456,152.900 82.456 C 152.767 82.456,152.572 82.917,152.466 83.480 C 152.360 84.042,152.157 84.503,152.014 84.503 C 151.871 84.503,151.754 84.799,151.753 85.161 C 151.752 85.523,151.559 86.186,151.325 86.635 C 151.091 87.084,150.814 87.907,150.709 88.463 C 150.605 89.019,150.432 89.474,150.324 89.474 C 150.039 89.474,149.406 91.269,149.588 91.563 C 149.673 91.701,149.603 91.813,149.432 91.813 C 149.262 91.813,149.123 92.076,149.123 92.398 C 149.123 92.719,148.993 92.982,148.834 92.982 C 148.675 92.982,148.460 93.512,148.357 94.159 C 148.253 94.805,148.055 95.405,147.915 95.492 C 147.775 95.578,147.656 95.871,147.651 96.143 C 147.645 96.415,147.387 97.164,147.076 97.807 C 146.765 98.450,146.507 99.273,146.501 99.635 C 146.496 99.996,146.370 100.292,146.222 100.292 C 146.074 100.292,145.861 100.720,145.750 101.243 C 145.638 101.765,145.445 102.325,145.322 102.485 C 145.198 102.646,145.005 103.205,144.894 103.728 C 144.782 104.251,144.586 104.678,144.459 104.678 C 144.331 104.678,144.143 105.205,144.040 105.848 C 143.937 106.491,143.723 107.018,143.564 107.018 C 143.405 107.018,143.303 107.116,143.338 107.237 C 143.403 107.464,142.628 109.691,141.923 111.301 C 141.702 111.808,141.520 112.433,141.520 112.690 C 141.520 112.948,141.400 113.158,141.254 113.158 C 141.107 113.158,140.898 113.684,140.790 114.326 C 140.681 114.968,140.487 115.559,140.359 115.639 C 140.230 115.718,140.038 116.245,139.932 116.810 C 139.826 117.374,139.622 117.836,139.478 117.836 C 139.335 117.836,139.128 118.428,139.020 119.152 C 138.911 119.876,138.706 120.468,138.563 120.468 C 138.421 120.468,138.304 120.665,138.304 120.906 C 138.304 121.148,138.379 121.345,138.471 121.345 C 138.563 121.345,138.836 121.148,139.077 120.906 C 139.462 120.521,144.143 120.468,177.652 120.468 L 215.789 120.468 215.789 119.761 C 215.789 119.373,215.888 119.011,216.009 118.957 C 216.322 118.818,217.255 116.060,217.253 115.278 C 217.252 114.916,217.383 114.620,217.544 114.620 C 217.705 114.620,217.811 114.521,217.781 114.401 C 217.692 114.054,218.172 112.165,218.430 111.842 C 218.558 111.681,218.752 110.958,218.859 110.236 C 218.967 109.513,219.157 108.855,219.281 108.774 C 219.405 108.692,219.603 108.099,219.721 107.456 C 219.839 106.813,220.039 106.155,220.165 105.994 C 220.291 105.833,220.485 105.077,220.595 104.313 C 220.706 103.549,220.905 102.924,221.037 102.924 C 221.170 102.924,221.367 102.335,221.475 101.615 C 221.583 100.895,221.778 100.240,221.908 100.160 C 222.039 100.079,222.233 99.352,222.340 98.545 C 222.447 97.737,222.662 97.076,222.817 97.076 C 222.972 97.076,223.099 96.755,223.099 96.362 C 223.099 95.970,223.216 95.577,223.358 95.489 C 223.500 95.401,223.705 94.738,223.814 94.016 C 223.922 93.294,224.123 92.634,224.260 92.549 C 224.398 92.464,224.604 91.841,224.718 91.165 C 224.833 90.488,225.033 89.732,225.163 89.485 C 225.532 88.783,226.023 86.395,226.023 85.300 C 226.023 84.427,226.817 81.338,227.467 79.678 C 227.593 79.357,227.926 78.304,228.206 77.339 C 228.487 76.374,228.900 75.054,229.124 74.405 C 229.349 73.757,229.532 73.000,229.532 72.724 C 229.532 71.701,230.389 72.235,230.722 73.465 C 230.907 74.148,231.164 74.971,231.294 75.292 C 231.423 75.614,231.662 76.404,231.825 77.047 C 232.200 78.530,232.685 80.162,234.211 85.088 C 234.883 87.259,235.619 89.660,235.845 90.424 C 236.072 91.188,236.455 92.471,236.696 93.275 C 236.937 94.079,237.332 95.395,237.573 96.199 C 237.814 97.003,238.197 98.286,238.424 99.050 C 238.650 99.814,239.583 102.873,240.497 105.848 C 242.137 111.187,242.593 112.699,243.387 115.424 C 244.110 117.907,245.119 120.901,245.307 121.123 C 245.820 121.726,324.022 121.511,323.869 120.906 C 323.540 119.612,322.945 118.129,322.753 118.129 C 322.642 118.129,322.462 117.537,322.353 116.813 C 322.245 116.089,322.041 115.497,321.900 115.497 C 321.759 115.497,321.561 114.973,321.458 114.333 C 321.356 113.692,321.173 113.230,321.053 113.304 C 320.932 113.379,320.749 112.916,320.647 112.275 C 320.545 111.635,320.331 111.111,320.172 111.111 C 320.013 111.111,319.882 110.815,319.881 110.453 C 319.880 110.091,319.688 109.428,319.454 108.979 C 319.219 108.530,318.942 107.707,318.838 107.151 C 318.734 106.595,318.548 106.140,318.426 106.140 C 318.304 106.140,318.119 105.614,318.016 104.971 C 317.914 104.327,317.732 103.800,317.614 103.799 C 317.495 103.797,317.152 103.008,316.852 102.044 C 316.551 101.081,316.204 100.292,316.081 100.292 C 315.957 100.292,315.767 99.700,315.659 98.977 C 315.550 98.253,315.339 97.661,315.190 97.661 C 315.041 97.661,314.835 97.135,314.732 96.491 C 314.629 95.848,314.442 95.322,314.316 95.322 C 314.190 95.322,313.998 94.795,313.889 94.152 C 313.780 93.509,313.586 92.982,313.457 92.982 C 313.328 92.982,313.138 92.527,313.033 91.971 C 312.929 91.415,312.652 90.593,312.418 90.144 C 312.184 89.695,311.991 89.097,311.990 88.816 C 311.989 88.534,311.857 88.304,311.696 88.304 C 311.535 88.304,311.404 88.000,311.404 87.629 C 311.404 87.258,311.210 86.698,310.974 86.386 C 310.738 86.074,310.540 85.556,310.534 85.234 C 310.528 84.912,310.326 84.272,310.086 83.812 C 309.846 83.351,309.649 82.784,309.649 82.552 C 309.649 82.319,309.532 82.201,309.389 82.290 C 309.247 82.378,309.041 81.859,308.933 81.137 C 308.825 80.415,308.624 79.825,308.487 79.825 C 308.350 79.825,308.150 79.298,308.041 78.655 C 307.932 78.012,307.740 77.485,307.614 77.485 C 307.488 77.485,307.301 76.959,307.198 76.316 C 307.095 75.673,306.881 75.146,306.722 75.146 C 306.563 75.146,306.428 74.850,306.423 74.488 C 306.417 74.126,306.159 73.304,305.848 72.661 C 305.537 72.018,305.279 71.195,305.273 70.833 L 305.263 70.175 231.287 70.175 L 157.310 70.175 157.310 70.906 M36.028 175.845 C 35.752 176.186,35.185 176.684,34.768 176.952 C 34.351 177.220,33.604 177.844,33.109 178.339 C 32.614 178.835,32.094 179.240,31.953 179.240 C 31.813 179.240,31.375 179.629,30.980 180.105 C 30.586 180.580,30.109 180.975,29.921 180.982 C 29.733 180.989,29.047 181.520,28.397 182.164 C 27.747 182.807,27.106 183.333,26.971 183.333 C 26.837 183.333,26.404 183.722,26.010 184.198 C 25.402 184.931,25.079 185.065,23.894 185.075 C 22.829 185.085,22.456 185.209,22.328 185.599 C 22.235 185.881,21.976 186.526,21.752 187.032 C 21.528 187.539,21.345 188.156,21.345 188.404 C 21.345 188.652,21.228 188.926,21.086 189.015 C 20.943 189.103,20.740 189.637,20.634 190.201 C 20.528 190.766,20.333 191.228,20.200 191.228 C 20.067 191.228,19.874 191.754,19.771 192.398 C 19.668 193.041,19.462 193.567,19.313 193.567 C 19.164 193.567,18.953 194.159,18.844 194.883 C 18.736 195.607,18.532 196.199,18.391 196.199 C 18.251 196.199,18.051 196.725,17.949 197.368 C 17.846 198.012,17.647 198.538,17.506 198.538 C 17.366 198.538,17.251 198.748,17.251 199.006 C 17.251 199.427,16.862 200.448,16.018 202.238 C 15.854 202.585,15.810 203.012,15.918 203.188 C 16.027 203.365,16.008 203.509,15.876 203.509 C 15.557 203.509,14.620 205.693,14.620 206.435 C 14.620 206.755,14.490 207.018,14.331 207.018 C 14.172 207.018,13.958 207.544,13.855 208.187 C 13.752 208.830,13.565 209.357,13.439 209.357 C 13.312 209.357,13.120 209.884,13.011 210.528 C 12.903 211.172,12.690 211.622,12.540 211.529 C 12.389 211.436,12.292 211.469,12.323 211.601 C 12.432 212.068,11.920 214.035,11.689 214.035 C 11.560 214.035,11.366 214.561,11.257 215.205 C 11.149 215.848,10.957 216.374,10.830 216.374 C 10.704 216.374,10.517 216.901,10.414 217.544 C 10.311 218.187,10.097 218.713,9.938 218.713 C 9.779 218.713,9.649 218.913,9.649 219.156 C 9.649 219.399,9.528 219.827,9.380 220.106 C 9.232 220.386,8.811 221.469,8.444 222.515 C 8.076 223.560,7.606 224.744,7.399 225.146 C 7.191 225.548,7.020 226.173,7.019 226.535 C 7.018 226.897,6.898 227.193,6.751 227.193 C 6.604 227.193,6.395 227.719,6.287 228.363 C 6.178 229.006,5.984 229.532,5.855 229.532 C 5.726 229.532,5.535 229.987,5.431 230.543 C 5.327 231.099,5.050 231.922,4.815 232.371 C 4.581 232.820,4.389 233.417,4.388 233.699 C 4.387 233.980,4.266 234.211,4.119 234.211 C 3.973 234.211,3.764 234.736,3.655 235.379 C 3.547 236.021,3.338 236.621,3.191 236.712 C 3.044 236.802,2.924 237.132,2.924 237.444 C 2.924 237.756,2.798 238.012,2.645 238.012 C 2.491 238.012,2.279 238.474,2.173 239.038 C 2.067 239.603,1.864 240.137,1.721 240.225 C 1.579 240.313,1.462 240.588,1.462 240.836 C 1.462 241.257,0.875 242.777,0.268 243.929 C 0.121 244.208,-0.000 244.570,-0.000 244.733 C 0.000 245.142,97.554 245.146,97.807 244.737 C 97.927 244.543,126.414 244.438,182.254 244.424 C 228.601 244.413,266.784 244.290,267.105 244.152 C 267.427 244.014,267.527 243.892,267.328 243.880 C 267.129 243.869,266.882 243.333,266.779 242.690 C 266.676 242.047,266.477 241.520,266.337 241.520 C 266.197 241.520,266.082 241.217,266.082 240.845 C 266.082 240.474,265.889 239.915,265.653 239.603 C 265.416 239.290,265.218 238.838,265.211 238.596 C 265.204 238.355,264.878 237.566,264.486 236.842 C 262.721 233.586,261.404 230.685,261.404 230.058 C 261.404 229.833,261.293 229.524,261.158 229.371 C 261.023 229.219,260.291 227.383,259.532 225.292 C 258.772 223.202,258.018 221.168,257.855 220.772 C 256.999 218.691,255.848 214.489,255.848 213.446 C 255.848 213.127,255.733 212.865,255.593 212.865 C 255.453 212.865,255.254 212.339,255.151 211.696 C 255.048 211.053,254.842 210.526,254.693 210.526 C 254.544 210.526,254.333 209.934,254.224 209.211 C 254.116 208.487,253.912 207.895,253.771 207.895 C 253.631 207.895,253.432 207.368,253.329 206.725 C 253.226 206.082,253.042 205.556,252.919 205.556 C 252.797 205.556,252.610 205.095,252.505 204.532 C 252.399 203.969,252.204 203.509,252.071 203.509 C 251.938 203.509,251.748 203.000,251.648 202.378 C 251.549 201.756,251.270 200.868,251.028 200.404 C 250.786 199.941,250.588 199.331,250.587 199.050 C 250.586 198.768,250.453 198.538,250.292 198.538 C 250.132 198.538,250.000 198.209,250.000 197.807 C 250.000 197.405,249.870 197.076,249.711 197.076 C 249.552 197.076,249.338 196.550,249.235 195.906 C 249.132 195.263,248.948 194.737,248.826 194.737 C 248.703 194.737,248.517 194.276,248.411 193.713 C 248.306 193.151,248.108 192.690,247.973 192.690 C 247.838 192.690,247.638 192.098,247.530 191.374 C 247.421 190.651,247.211 190.058,247.062 190.058 C 246.912 190.058,246.706 189.532,246.604 188.889 C 246.501 188.246,246.317 187.719,246.195 187.719 C 246.073 187.719,245.915 187.325,245.844 186.842 C 245.727 186.044,245.790 185.965,246.542 185.965 C 248.008 185.965,247.280 184.646,245.631 184.316 C 245.139 184.218,244.737 184.034,244.737 183.907 C 244.737 183.781,244.211 183.588,243.567 183.480 C 242.924 183.371,242.398 183.191,242.398 183.079 C 242.398 182.789,240.606 182.152,240.308 182.336 C 240.171 182.421,240.058 182.351,240.058 182.181 C 240.058 182.011,239.861 181.871,239.620 181.871 C 239.379 181.871,239.181 181.740,239.181 181.579 C 239.181 181.418,238.951 181.282,238.670 181.277 C 238.388 181.271,237.632 181.012,236.988 180.702 C 236.345 180.391,235.588 180.132,235.307 180.127 C 235.026 180.121,234.795 179.997,234.795 179.850 C 234.795 179.704,234.269 179.495,233.626 179.386 C 232.982 179.277,232.456 179.079,232.456 178.945 C 232.456 178.811,232.053 178.613,231.559 178.504 C 231.066 178.396,230.309 178.123,229.878 177.898 C 229.447 177.673,228.863 177.488,228.582 177.487 C 228.300 177.486,228.070 177.360,228.070 177.206 C 228.070 177.053,227.577 176.836,226.974 176.725 C 226.371 176.615,225.811 176.437,225.731 176.331 C 224.841 175.161,228.680 175.205,130.034 175.216 L 36.530 175.226 36.028 175.845 " stroke="none" fill="#f38434" fill-rule="evenodd"></path><path id="path1" d="M183.626 0.468 C 183.626 0.725,183.428 1.383,183.187 1.929 C 182.946 2.476,182.551 3.371,182.310 3.918 C 182.069 4.465,181.871 5.116,181.871 5.363 C 181.871 5.611,181.750 5.889,181.601 5.980 C 181.453 6.072,181.243 6.549,181.135 7.041 C 181.027 7.532,180.755 8.287,180.530 8.719 C 180.305 9.150,180.120 9.733,180.119 10.015 C 180.118 10.296,180.013 10.526,179.887 10.526 C 179.760 10.526,179.638 10.777,179.615 11.083 C 179.592 11.388,179.301 12.237,178.968 12.967 C 178.635 13.698,178.363 14.566,178.363 14.896 C 178.363 15.227,178.233 15.497,178.074 15.497 C 177.915 15.497,177.701 16.023,177.598 16.667 C 177.495 17.310,177.296 17.836,177.156 17.836 C 177.015 17.836,176.901 18.029,176.901 18.265 C 176.901 18.659,176.316 20.186,175.695 21.414 C 175.554 21.693,175.438 22.088,175.437 22.291 C 175.436 22.495,175.243 23.028,175.009 23.477 C 174.775 23.926,174.498 24.749,174.394 25.305 C 174.289 25.861,174.093 26.316,173.957 26.316 C 173.822 26.316,173.624 26.778,173.518 27.342 C 173.412 27.907,173.209 28.441,173.066 28.529 C 172.924 28.617,172.806 28.912,172.805 29.184 C 172.804 29.456,172.619 30.031,172.394 30.463 C 172.169 30.894,171.894 31.660,171.784 32.164 C 171.673 32.668,171.398 33.433,171.173 33.865 C 170.948 34.296,170.763 34.879,170.762 35.161 C 170.761 35.442,170.629 35.673,170.468 35.673 C 170.307 35.673,170.175 35.925,170.175 36.234 C 170.175 36.542,169.956 37.233,169.687 37.769 C 168.811 39.517,168.713 39.753,168.712 40.128 C 168.711 40.331,168.518 40.864,168.284 41.314 C 168.050 41.763,167.773 42.585,167.668 43.141 C 167.564 43.697,167.363 44.152,167.222 44.152 C 167.081 44.152,166.882 44.678,166.779 45.322 C 166.676 45.965,166.477 46.491,166.337 46.491 C 166.197 46.491,166.081 46.721,166.080 47.003 C 166.079 47.284,165.894 47.868,165.669 48.299 C 165.444 48.730,165.169 49.496,165.058 50.000 C 164.948 50.504,164.673 51.270,164.448 51.701 C 164.223 52.132,164.038 52.716,164.037 52.997 C 164.036 53.279,163.920 53.509,163.779 53.509 C 163.541 53.509,163.032 55.141,163.119 55.629 C 163.140 55.749,163.026 55.848,162.865 55.848 C 162.705 55.848,162.573 56.177,162.573 56.579 C 162.573 56.981,162.443 57.310,162.284 57.310 C 162.125 57.310,161.911 57.836,161.808 58.480 C 161.705 59.123,161.506 59.649,161.366 59.649 C 161.226 59.649,161.110 59.879,161.109 60.161 C 161.108 60.442,160.916 61.040,160.682 61.489 C 160.447 61.938,160.170 62.760,160.066 63.316 C 159.962 63.873,159.765 64.327,159.630 64.327 C 159.494 64.327,159.294 64.821,159.186 65.424 C 159.077 66.027,158.889 66.652,158.768 66.813 C 158.646 66.974,158.456 67.533,158.344 68.056 C 158.232 68.578,158.020 69.006,157.872 69.006 C 157.723 69.006,157.602 69.203,157.602 69.444 C 157.602 69.833,165.968 69.883,231.140 69.883 C 289.777 69.883,304.678 69.809,304.677 69.518 C 304.676 69.317,304.499 68.814,304.283 68.402 C 304.068 67.989,303.802 67.295,303.693 66.859 C 303.583 66.423,303.168 65.355,302.770 64.485 C 302.372 63.615,302.047 62.631,302.047 62.299 C 302.047 61.967,301.917 61.696,301.758 61.696 C 301.599 61.696,301.385 61.170,301.282 60.526 C 301.179 59.883,300.980 59.357,300.840 59.357 C 300.700 59.357,300.584 59.126,300.583 58.845 C 300.582 58.564,300.397 57.980,300.172 57.549 C 299.947 57.118,299.672 56.352,299.561 55.848 C 299.451 55.344,299.176 54.578,298.951 54.147 C 298.726 53.716,298.541 53.132,298.540 52.851 C 298.539 52.569,298.423 52.339,298.283 52.339 C 298.143 52.339,297.944 51.813,297.841 51.170 C 297.738 50.526,297.524 50.000,297.365 50.000 C 297.206 50.000,297.076 49.671,297.076 49.269 C 297.076 48.867,296.944 48.538,296.784 48.538 C 296.623 48.538,296.490 48.308,296.489 48.026 C 296.488 47.745,296.296 47.147,296.062 46.698 C 295.828 46.249,295.551 45.427,295.446 44.871 C 295.342 44.315,295.151 43.860,295.022 43.860 C 294.894 43.860,294.699 43.333,294.591 42.690 C 294.482 42.047,294.273 41.520,294.126 41.520 C 293.980 41.520,293.855 41.224,293.850 40.863 C 293.844 40.501,293.586 39.678,293.275 39.035 C 292.964 38.392,292.705 37.569,292.700 37.208 C 292.695 36.846,292.558 36.550,292.398 36.550 C 292.237 36.550,292.104 36.319,292.103 36.038 C 292.102 35.757,291.918 35.173,291.692 34.742 C 291.467 34.310,291.195 33.555,291.087 33.064 C 290.979 32.573,290.769 32.095,290.621 32.004 C 290.472 31.912,290.351 31.581,290.351 31.269 C 290.351 30.957,290.234 30.702,290.091 30.702 C 289.948 30.702,289.746 30.247,289.641 29.691 C 289.537 29.135,289.260 28.312,289.026 27.863 C 288.792 27.414,288.599 26.751,288.598 26.389 C 288.597 26.027,288.480 25.731,288.337 25.731 C 288.194 25.731,287.990 25.270,287.885 24.708 C 287.779 24.145,287.567 23.684,287.414 23.684 C 287.260 23.684,287.134 23.388,287.133 23.026 C 287.132 22.664,286.939 22.001,286.705 21.552 C 286.471 21.103,286.194 20.281,286.090 19.724 C 285.985 19.168,285.798 18.713,285.673 18.713 C 285.547 18.713,285.353 18.220,285.240 17.618 C 285.127 17.015,284.947 16.456,284.840 16.375 C 284.734 16.294,284.396 15.471,284.089 14.547 C 283.782 13.622,283.435 12.865,283.319 12.865 C 283.203 12.865,283.019 12.273,282.910 11.550 C 282.801 10.826,282.601 10.234,282.464 10.234 C 282.327 10.234,282.126 9.708,282.018 9.064 C 281.909 8.421,281.715 7.895,281.586 7.895 C 281.457 7.895,281.259 7.402,281.146 6.799 C 281.033 6.196,280.854 5.637,280.748 5.556 C 280.642 5.475,280.249 4.488,279.874 3.363 C 279.500 2.237,279.050 1.020,278.875 0.658 L 278.556 0.000 231.091 0.000 C 187.790 0.000,183.626 0.041,183.626 0.468 M229.732 73.611 C 229.644 73.893,229.377 74.781,229.140 75.585 C 228.902 76.389,228.357 78.165,227.927 79.532 C 226.458 84.213,226.042 85.890,226.178 86.585 C 226.253 86.968,226.397 87.741,226.499 88.304 C 226.601 88.867,226.787 89.459,226.911 89.620 C 227.036 89.781,227.231 90.537,227.345 91.301 C 227.459 92.065,227.657 92.690,227.785 92.690 C 227.914 92.690,228.111 93.249,228.224 93.933 C 228.336 94.616,228.531 95.307,228.655 95.468 C 228.779 95.629,228.973 96.319,229.086 97.001 C 229.199 97.684,229.411 98.317,229.558 98.408 C 229.704 98.498,229.825 98.886,229.825 99.269 C 229.825 99.652,229.949 100.042,230.100 100.136 C 230.252 100.229,230.464 100.895,230.572 101.615 C 230.680 102.335,230.872 102.924,231.000 102.924 C 231.127 102.924,231.322 103.582,231.433 104.386 C 231.543 105.190,231.745 105.916,231.882 106.001 C 232.018 106.085,232.218 106.743,232.326 107.463 C 232.434 108.183,232.622 108.772,232.744 108.772 C 232.866 108.772,233.052 109.424,233.158 110.222 C 233.264 111.019,233.467 111.744,233.609 111.832 C 233.751 111.919,233.959 112.550,234.072 113.233 C 234.185 113.915,234.376 114.605,234.498 114.766 C 234.620 114.927,234.811 115.568,234.923 116.191 C 235.123 117.297,235.232 117.598,235.915 118.921 C 236.098 119.277,236.175 119.757,236.086 119.988 C 235.998 120.219,236.066 120.496,236.237 120.602 C 236.409 120.708,236.550 121.116,236.550 121.508 C 236.550 121.901,236.669 122.222,236.815 122.222 C 236.960 122.222,237.170 122.880,237.281 123.684 C 237.391 124.488,237.589 125.146,237.719 125.146 C 237.850 125.146,238.047 125.804,238.158 126.608 C 238.268 127.412,238.466 128.070,238.596 128.070 C 238.727 128.070,238.924 128.728,239.035 129.532 C 239.146 130.336,239.348 131.063,239.484 131.147 C 239.621 131.231,239.821 131.889,239.929 132.609 C 240.037 133.329,240.225 133.918,240.346 133.918 C 240.468 133.918,240.655 134.576,240.762 135.380 C 240.869 136.184,241.071 136.842,241.211 136.842 C 241.351 136.842,241.556 137.500,241.667 138.304 C 241.777 139.108,241.987 139.839,242.133 139.929 C 242.278 140.019,242.398 140.406,242.398 140.789 C 242.398 141.173,242.531 141.569,242.695 141.670 C 242.858 141.771,242.922 141.967,242.836 142.105 C 242.751 142.244,242.814 142.440,242.978 142.541 C 243.141 142.642,243.275 143.038,243.275 143.421 C 243.275 143.804,243.394 144.191,243.540 144.281 C 243.686 144.371,243.895 145.103,244.006 145.907 C 244.116 146.711,244.318 147.368,244.454 147.368 C 244.590 147.368,244.790 147.962,244.899 148.688 C 245.008 149.413,245.201 150.072,245.328 150.150 C 245.455 150.229,245.650 150.951,245.760 151.755 C 245.871 152.559,246.076 153.216,246.216 153.216 C 246.356 153.216,246.558 153.874,246.665 154.678 C 246.772 155.482,246.961 156.140,247.086 156.140 C 247.211 156.140,247.404 156.798,247.515 157.602 C 247.625 158.406,247.835 159.064,247.981 159.064 C 248.126 159.064,248.246 159.393,248.246 159.795 C 248.246 160.218,248.414 160.526,248.645 160.526 C 249.209 160.526,259.649 170.108,259.649 170.626 C 259.649 170.861,259.912 171.053,260.234 171.053 C 260.556 171.053,260.819 171.185,260.819 171.346 C 260.819 171.541,274.345 171.615,301.243 171.565 L 341.667 171.491 341.757 170.562 C 341.806 170.051,341.576 169.039,341.245 168.312 C 340.914 167.586,340.643 166.721,340.643 166.390 C 340.643 166.060,340.523 165.789,340.377 165.789 C 340.230 165.789,340.021 165.263,339.912 164.620 C 339.804 163.977,339.609 163.450,339.481 163.450 C 339.352 163.450,339.161 162.995,339.057 162.439 C 338.952 161.883,338.675 161.061,338.441 160.612 C 338.207 160.163,338.014 159.646,338.013 159.463 C 338.013 159.281,337.815 158.754,337.575 158.294 C 337.335 157.833,337.137 157.226,337.136 156.944 C 337.135 156.663,337.003 156.433,336.842 156.433 C 336.681 156.433,336.550 156.104,336.550 155.702 C 336.550 155.300,336.430 154.971,336.283 154.971 C 336.136 154.971,335.927 154.444,335.819 153.801 C 335.710 153.158,335.516 152.632,335.387 152.632 C 335.258 152.632,335.067 152.177,334.963 151.621 C 334.859 151.064,334.582 150.242,334.348 149.793 C 334.113 149.344,333.921 148.754,333.920 148.482 C 333.919 148.210,333.801 147.916,333.659 147.828 C 333.516 147.739,333.313 147.205,333.207 146.641 C 333.101 146.076,332.889 145.614,332.735 145.614 C 332.582 145.614,332.455 145.318,332.454 144.956 C 332.453 144.594,332.268 143.945,332.043 143.514 C 331.818 143.082,331.546 142.327,331.438 141.836 C 331.330 141.344,331.120 140.867,330.972 140.776 C 330.823 140.684,330.701 140.386,330.700 140.114 C 330.699 139.842,330.502 139.243,330.261 138.782 C 330.021 138.322,329.825 137.763,329.825 137.540 C 329.825 137.317,329.710 137.135,329.570 137.135 C 329.429 137.135,329.230 136.608,329.127 135.965 C 329.025 135.322,328.810 134.795,328.652 134.795 C 328.493 134.795,328.358 134.499,328.353 134.137 C 328.347 133.776,328.089 132.953,327.778 132.310 C 327.467 131.667,327.208 130.844,327.203 130.482 C 327.197 130.121,327.073 129.825,326.926 129.825 C 326.780 129.825,326.571 129.298,326.462 128.655 C 326.353 128.012,326.144 127.485,325.998 127.485 C 325.851 127.485,325.730 127.255,325.729 126.974 C 325.728 126.692,325.536 126.095,325.302 125.646 C 325.067 125.196,324.790 124.374,324.686 123.818 C 324.582 123.262,324.379 122.807,324.236 122.807 C 324.094 122.807,323.977 122.544,323.977 122.222 C 323.977 121.640,323.782 121.637,284.673 121.637 C 246.688 121.637,244.253 121.600,244.614 121.015 C 244.705 120.867,244.587 120.190,244.351 119.511 C 244.114 118.831,243.707 117.551,243.446 116.667 C 243.184 115.782,242.578 113.839,242.099 112.349 C 241.620 110.859,241.228 109.443,241.228 109.202 C 241.228 108.961,241.103 108.536,240.951 108.256 C 240.799 107.977,240.394 106.762,240.052 105.556 C 239.710 104.349,239.319 103.034,239.184 102.632 C 239.048 102.230,238.524 100.519,238.019 98.830 C 237.514 97.142,236.987 95.431,236.847 95.029 C 236.707 94.627,236.310 93.311,235.965 92.105 C 235.619 90.899,235.225 89.583,235.088 89.181 C 234.951 88.779,234.551 87.463,234.199 86.257 C 233.584 84.150,233.325 83.293,231.313 76.727 C 230.816 75.105,230.409 73.624,230.409 73.438 C 230.409 72.912,229.912 73.039,229.732 73.611 M239.693 120.085 C 239.412 120.158,238.951 120.158,238.670 120.085 C 238.388 120.011,238.618 119.951,239.181 119.951 C 239.744 119.951,239.974 120.011,239.693 120.085 M215.363 120.741 C 215.228 120.959,203.854 121.053,177.464 121.053 C 139.013 121.053,138.987 121.053,138.235 122.076 C 138.117 122.237,138.019 122.664,138.016 123.026 C 138.014 123.388,137.882 123.684,137.723 123.684 C 137.564 123.684,137.350 124.208,137.248 124.848 C 137.145 125.489,136.946 125.942,136.806 125.855 C 136.665 125.768,136.550 125.952,136.550 126.265 C 136.550 126.578,136.353 127.211,136.113 127.671 C 135.873 128.132,135.675 128.739,135.674 129.020 C 135.673 129.302,135.556 129.532,135.413 129.532 C 135.270 129.532,135.067 129.987,134.963 130.543 C 134.859 131.099,134.582 131.922,134.348 132.371 C 134.113 132.820,133.921 133.417,133.920 133.699 C 133.919 133.980,133.798 134.211,133.651 134.211 C 133.505 134.211,133.296 134.737,133.187 135.380 C 133.078 136.023,132.870 136.550,132.723 136.550 C 132.576 136.550,132.452 136.846,132.446 137.208 C 132.441 137.569,132.182 138.392,131.871 139.035 C 131.561 139.678,131.302 140.501,131.296 140.863 C 131.291 141.224,131.157 141.520,130.998 141.520 C 130.839 141.520,130.625 142.047,130.522 142.690 C 130.419 143.333,130.220 143.860,130.080 143.860 C 129.939 143.860,129.825 144.042,129.825 144.265 C 129.825 144.488,129.628 145.047,129.388 145.508 C 129.148 145.968,128.950 146.575,128.949 146.857 C 128.948 147.138,128.830 147.368,128.688 147.368 C 128.545 147.368,128.342 147.823,128.238 148.379 C 128.134 148.936,127.857 149.758,127.622 150.207 C 127.388 150.656,127.196 151.319,127.195 151.681 C 127.194 152.043,127.072 152.339,126.924 152.339 C 126.776 152.339,126.563 152.767,126.451 153.289 C 126.340 153.812,126.147 154.371,126.023 154.532 C 125.900 154.693,125.707 155.252,125.595 155.775 C 125.484 156.298,125.286 156.725,125.156 156.725 C 125.026 156.725,124.831 157.317,124.723 158.041 C 124.614 158.765,124.404 159.357,124.255 159.357 C 124.105 159.357,123.899 159.883,123.796 160.526 C 123.694 161.170,123.495 161.696,123.354 161.696 C 123.214 161.696,123.099 161.878,123.099 162.101 C 123.099 162.324,122.903 162.883,122.663 163.344 C 122.422 163.804,122.225 164.412,122.224 164.693 C 122.223 164.974,122.102 165.205,121.956 165.205 C 121.809 165.205,121.600 165.731,121.491 166.374 C 121.383 167.018,121.196 167.544,121.076 167.544 C 120.956 167.544,120.843 167.708,120.825 167.909 C 120.806 168.110,120.701 168.834,120.591 169.518 L 120.391 170.760 160.452 170.760 C 192.149 170.760,200.575 170.684,200.808 170.395 C 200.971 170.194,201.196 169.470,201.308 168.787 C 201.421 168.103,201.624 167.544,201.759 167.544 C 201.894 167.544,202.095 166.820,202.206 165.936 C 202.316 165.051,202.523 164.327,202.665 164.327 C 202.808 164.327,202.924 164.072,202.924 163.760 C 202.924 163.448,203.044 163.118,203.191 163.027 C 203.338 162.937,203.550 162.304,203.663 161.621 C 203.775 160.939,203.969 160.249,204.094 160.088 C 204.218 159.927,204.412 159.237,204.525 158.554 C 204.637 157.872,204.846 157.241,204.988 157.153 C 205.130 157.065,205.333 156.341,205.439 155.544 C 205.544 154.746,205.731 154.094,205.852 154.094 C 205.974 154.094,206.162 153.505,206.270 152.785 C 206.378 152.065,206.587 151.401,206.734 151.311 C 206.880 151.220,207.087 150.493,207.193 149.696 C 207.299 148.898,207.485 148.246,207.607 148.246 C 207.729 148.246,207.917 147.657,208.025 146.937 C 208.133 146.217,208.333 145.559,208.469 145.474 C 208.605 145.390,208.808 144.663,208.918 143.859 C 209.029 143.055,209.238 142.398,209.384 142.398 C 209.530 142.398,209.649 142.076,209.649 141.684 C 209.649 141.291,209.773 140.894,209.925 140.800 C 210.076 140.706,210.289 140.039,210.397 139.317 C 210.505 138.595,210.703 137.937,210.836 137.855 C 210.969 137.773,211.166 137.117,211.274 136.397 C 211.382 135.677,211.574 135.088,211.702 135.088 C 211.829 135.088,212.024 134.430,212.135 133.626 C 212.245 132.822,212.442 132.164,212.573 132.164 C 212.704 132.164,212.901 131.506,213.012 130.702 C 213.122 129.898,213.315 129.240,213.440 129.240 C 213.565 129.240,213.755 128.582,213.861 127.778 C 213.968 126.974,214.170 126.316,214.310 126.316 C 214.450 126.316,214.655 125.658,214.766 124.854 C 214.877 124.050,215.069 123.392,215.192 123.392 C 215.430 123.392,215.876 120.750,215.674 120.547 C 215.609 120.482,215.469 120.569,215.363 120.741 M243.787 120.962 C 243.505 121.035,243.045 121.035,242.763 120.962 C 242.482 120.888,242.712 120.828,243.275 120.828 C 243.838 120.828,244.068 120.888,243.787 120.962 M289.181 173.919 C 289.181 174.062,287.654 174.261,285.786 174.361 C 283.919 174.462,282.242 174.664,282.058 174.812 C 281.875 174.960,281.035 175.174,280.190 175.287 C 279.346 175.401,278.582 175.613,278.492 175.758 C 278.402 175.904,278.007 176.023,277.614 176.023 C 277.222 176.023,276.901 176.155,276.901 176.316 C 276.901 176.477,276.670 176.613,276.389 176.618 C 276.107 176.624,275.351 176.882,274.708 177.193 C 274.064 177.504,273.434 177.762,273.306 177.768 C 273.091 177.777,272.745 178.027,271.833 178.836 C 271.630 179.015,271.174 179.255,270.820 179.367 C 270.465 179.480,270.175 179.694,270.175 179.844 C 270.175 179.994,270.036 180.117,269.866 180.117 C 268.552 180.117,261.426 187.749,260.925 189.693 C 260.832 190.055,260.648 190.351,260.518 190.351 C 260.387 190.351,260.194 190.746,260.088 191.228 C 259.982 191.711,259.774 192.105,259.626 192.105 C 259.478 192.105,259.356 192.270,259.355 192.471 C 259.354 192.672,259.161 193.204,258.927 193.653 C 258.693 194.102,258.416 194.926,258.311 195.483 C 258.206 196.041,258.008 196.567,257.870 196.653 C 257.732 196.738,257.533 197.460,257.427 198.258 C 257.321 199.055,257.133 199.708,257.009 199.708 C 256.885 199.708,256.704 200.333,256.605 201.096 C 256.507 201.860,256.347 202.946,256.251 203.509 C 256.155 204.072,256.014 206.644,255.938 209.226 L 255.800 213.920 257.308 218.144 C 258.137 220.468,258.922 222.632,259.051 222.953 C 259.276 223.512,259.644 224.480,260.607 227.047 C 260.848 227.690,261.257 228.776,261.517 229.459 C 261.776 230.143,262.200 231.261,262.459 231.944 C 263.921 235.807,265.424 238.216,267.198 239.544 C 267.812 240.003,268.328 241.065,268.584 242.398 C 268.692 242.961,268.913 243.586,269.075 243.787 C 269.302 244.067,269.094 244.152,268.182 244.152 C 267.528 244.152,266.912 244.284,266.813 244.444 C 266.693 244.638,238.362 244.737,182.768 244.737 C 136.642 244.737,98.491 244.819,97.987 244.920 C 97.195 245.079,97.047 245.256,96.890 246.236 C 96.790 246.859,96.594 247.368,96.454 247.368 C 96.314 247.368,96.199 247.551,96.199 247.774 C 96.199 247.996,96.002 248.556,95.762 249.016 C 95.522 249.477,95.324 250.084,95.323 250.365 C 95.322 250.647,95.207 250.877,95.067 250.877 C 94.926 250.877,94.727 251.404,94.625 252.047 C 94.522 252.690,94.322 253.216,94.181 253.216 C 94.040 253.216,93.839 253.671,93.735 254.227 C 93.631 254.783,93.354 255.606,93.120 256.055 C 92.885 256.504,92.693 257.167,92.692 257.529 C 92.691 257.891,92.558 258.187,92.398 258.187 C 92.237 258.187,92.104 258.417,92.103 258.699 C 92.102 258.980,91.918 259.564,91.692 259.995 C 91.467 260.426,91.195 261.181,91.087 261.673 C 90.979 262.164,90.769 262.641,90.621 262.733 C 90.472 262.825,90.351 263.103,90.351 263.350 C 90.351 263.598,90.154 264.248,89.912 264.795 C 89.671 265.342,89.276 266.237,89.035 266.784 C 88.794 267.331,88.592 268.022,88.587 268.319 C 88.582 268.616,88.385 269.115,88.149 269.427 C 87.912 269.739,87.719 270.233,87.719 270.524 C 87.719 270.815,87.588 271.053,87.427 271.053 C 87.266 271.053,87.134 271.349,87.133 271.711 C 87.132 272.072,86.939 272.736,86.705 273.185 C 86.471 273.634,86.194 274.456,86.090 275.012 C 85.985 275.568,85.784 276.023,85.643 276.023 C 85.502 276.023,85.303 276.550,85.200 277.193 C 85.097 277.836,84.898 278.363,84.758 278.363 C 84.618 278.363,84.502 278.593,84.501 278.874 C 84.500 279.156,84.323 279.724,84.108 280.136 C 83.892 280.549,83.627 281.244,83.517 281.679 C 83.408 282.115,82.993 283.183,82.595 284.053 C 82.197 284.923,81.867 285.874,81.862 286.165 C 81.857 286.457,81.660 286.951,81.423 287.263 C 81.187 287.576,80.994 288.135,80.994 288.506 C 80.994 288.877,80.863 289.181,80.702 289.181 C 80.541 289.181,80.409 289.412,80.408 289.693 C 80.407 289.974,80.209 290.582,79.969 291.042 C 79.729 291.503,79.532 291.996,79.532 292.139 C 79.532 292.594,167.513 292.471,167.968 292.015 C 168.179 291.805,168.447 291.048,168.565 290.334 C 168.683 289.620,168.881 288.904,169.006 288.743 C 169.130 288.582,169.324 287.891,169.437 287.208 C 169.550 286.524,169.747 285.965,169.876 285.965 C 170.004 285.965,170.184 285.603,170.275 285.161 C 170.772 282.755,171.193 281.287,171.385 281.287 C 171.504 281.287,171.691 280.693,171.799 279.967 C 171.908 279.242,172.101 278.583,172.229 278.505 C 172.356 278.426,172.550 277.704,172.661 276.900 C 172.771 276.096,172.977 275.439,173.117 275.439 C 173.257 275.439,173.459 274.781,173.566 273.977 C 173.672 273.173,173.862 272.515,173.987 272.515 C 174.112 272.515,174.305 271.857,174.415 271.053 C 174.526 270.249,174.723 269.591,174.854 269.591 C 174.984 269.591,175.182 268.933,175.292 268.129 C 175.403 267.325,175.598 266.667,175.725 266.667 C 175.853 266.667,176.045 266.078,176.153 265.358 C 176.261 264.638,176.474 263.972,176.625 263.878 C 176.777 263.785,176.901 263.395,176.901 263.012 C 176.901 262.629,177.025 262.239,177.176 262.145 C 177.328 262.051,177.540 261.386,177.648 260.666 C 177.756 259.946,177.948 259.357,178.076 259.357 C 178.203 259.357,178.398 258.699,178.509 257.895 C 178.619 257.091,178.821 256.364,178.958 256.280 C 179.094 256.196,179.294 255.538,179.402 254.818 C 179.510 254.098,179.703 253.509,179.830 253.509 C 179.958 253.509,180.153 252.851,180.263 252.047 C 180.374 251.243,180.576 250.516,180.712 250.432 C 180.849 250.348,181.049 249.690,181.157 248.970 C 181.265 248.250,181.470 247.661,181.612 247.661 C 181.755 247.661,181.871 247.463,181.871 247.222 C 181.871 246.834,186.972 246.784,226.023 246.784 L 270.175 246.784 270.175 247.515 C 270.175 247.917,270.295 248.246,270.440 248.246 C 270.586 248.246,270.796 248.903,270.906 249.707 C 271.017 250.511,271.219 251.238,271.356 251.322 C 271.492 251.407,271.692 252.065,271.800 252.785 C 271.908 253.505,272.113 254.094,272.255 254.094 C 272.398 254.094,272.515 254.394,272.515 254.762 C 272.515 255.129,272.778 256.178,273.099 257.093 C 273.421 258.009,273.684 259.016,273.684 259.332 C 273.684 259.648,273.801 259.979,273.943 260.067 C 274.085 260.155,274.290 260.817,274.398 261.539 C 274.507 262.261,274.704 262.919,274.838 263.002 C 274.971 263.084,275.167 263.613,275.273 264.178 C 275.378 264.743,275.558 265.206,275.671 265.208 C 275.784 265.210,276.129 265.736,276.436 266.378 C 276.743 267.019,277.095 267.544,277.217 267.544 C 277.339 267.544,277.526 267.939,277.632 268.421 C 277.738 268.904,277.937 269.298,278.074 269.298 C 278.211 269.298,278.416 269.594,278.528 269.956 C 278.641 270.318,278.815 270.680,278.914 270.760 C 279.206 270.998,279.820 272.017,280.192 272.880 C 280.382 273.322,280.640 273.684,280.766 273.684 C 280.891 273.684,280.994 273.872,280.994 274.102 C 280.994 274.332,281.159 274.696,281.360 274.911 C 281.561 275.127,281.978 275.761,282.288 276.321 C 282.597 276.881,282.929 277.405,283.025 277.485 C 283.121 277.566,283.360 277.961,283.556 278.363 C 283.995 279.260,284.588 280.214,284.829 280.409 C 284.928 280.490,285.101 280.852,285.214 281.213 C 285.327 281.575,285.532 281.871,285.669 281.871 C 285.806 281.871,286.005 282.266,286.111 282.749 C 286.217 283.231,286.416 283.626,286.553 283.626 C 286.690 283.626,286.895 283.922,287.008 284.284 C 287.121 284.645,287.294 285.007,287.393 285.088 C 287.686 285.325,288.300 286.344,288.671 287.208 C 288.861 287.650,289.120 288.012,289.245 288.012 C 289.371 288.012,289.474 288.209,289.474 288.450 C 289.474 288.692,289.603 288.889,289.761 288.889 C 289.918 288.889,290.130 289.218,290.231 289.620 C 290.332 290.022,290.532 290.351,290.675 290.351 C 290.818 290.351,290.936 290.528,290.936 290.745 C 290.936 290.961,291.181 291.422,291.482 291.768 L 292.028 292.398 337.134 292.398 L 382.240 292.398 382.063 291.303 C 381.965 290.702,381.750 290.164,381.586 290.110 C 381.421 290.055,381.286 289.725,381.285 289.376 C 381.284 289.028,381.091 288.375,380.857 287.926 C 380.623 287.477,380.346 286.655,380.242 286.099 C 380.137 285.543,379.947 285.088,379.818 285.088 C 379.689 285.088,379.495 284.561,379.386 283.918 C 379.277 283.275,379.080 282.749,378.947 282.749 C 378.815 282.749,378.618 282.223,378.509 281.580 C 378.400 280.938,378.216 280.353,378.099 280.281 C 377.982 280.209,377.631 279.353,377.320 278.379 C 377.009 277.405,376.657 276.608,376.539 276.608 C 376.420 276.608,376.239 276.082,376.136 275.439 C 376.033 274.795,375.845 274.269,375.719 274.269 C 375.593 274.269,375.401 273.743,375.292 273.099 C 375.184 272.456,374.989 271.930,374.861 271.930 C 374.732 271.930,374.541 271.475,374.437 270.919 C 374.332 270.363,374.056 269.540,373.821 269.091 C 373.587 268.642,373.395 268.052,373.394 267.780 C 373.393 267.508,373.275 267.214,373.133 267.126 C 372.990 267.038,372.787 266.504,372.681 265.939 C 372.575 265.374,372.363 264.912,372.209 264.912 C 372.055 264.912,371.929 264.616,371.928 264.254 C 371.927 263.893,371.730 263.220,371.489 262.759 C 371.249 262.298,371.053 261.792,371.053 261.634 C 371.053 261.475,370.840 260.865,370.579 260.278 C 370.319 259.691,369.924 258.796,369.702 258.289 C 369.480 257.782,369.298 257.157,369.298 256.900 C 369.298 256.643,369.183 256.433,369.043 256.433 C 368.903 256.433,368.704 255.906,368.601 255.263 C 368.498 254.620,368.284 254.094,368.125 254.094 C 367.966 254.094,367.832 253.798,367.826 253.436 C 367.821 253.074,367.562 252.251,367.251 251.608 C 366.941 250.965,366.682 250.143,366.677 249.781 C 366.671 249.419,366.547 249.123,366.400 249.123 C 366.253 249.123,366.044 248.596,365.936 247.953 C 365.827 247.310,365.618 246.784,365.471 246.784 C 365.325 246.784,365.205 246.586,365.205 246.345 C 365.205 245.960,367.333 245.906,382.602 245.906 L 400.000 245.906 400.000 237.719 L 400.000 229.532 398.977 229.532 C 398.414 229.532,397.953 229.411,397.953 229.263 C 397.953 229.115,396.999 228.932,395.833 228.856 C 394.667 228.780,393.319 228.644,392.836 228.552 C 392.354 228.460,390.577 228.296,388.889 228.188 C 387.200 228.080,385.639 227.849,385.420 227.675 C 385.155 227.465,381.284 227.318,373.943 227.240 L 362.865 227.122 362.865 221.748 L 362.865 216.374 379.678 216.374 L 396.491 216.374 396.491 208.772 L 396.491 201.170 379.678 201.170 L 362.865 201.170 362.865 198.246 L 362.865 195.322 370.743 195.322 C 375.083 195.322,378.693 195.204,378.783 195.059 C 378.872 194.915,379.867 194.704,380.993 194.591 C 382.119 194.478,383.041 194.282,383.041 194.157 C 383.041 194.031,384.027 193.836,385.232 193.723 C 386.437 193.610,387.489 193.411,387.570 193.280 C 387.651 193.149,388.639 192.949,389.766 192.836 C 390.893 192.723,391.880 192.526,391.959 192.398 C 392.038 192.270,393.025 192.072,394.151 191.959 C 395.277 191.846,396.199 191.635,396.199 191.491 C 396.199 191.346,396.668 191.228,397.241 191.228 C 399.501 191.228,399.415 191.557,399.415 182.884 L 399.415 175.146 369.591 175.146 C 348.794 175.146,339.766 175.240,339.766 175.456 C 339.766 175.626,339.654 175.697,339.518 175.612 C 339.382 175.528,339.020 175.691,338.714 175.975 C 338.408 176.259,337.961 176.586,337.719 176.702 C 337.478 176.818,336.754 177.235,336.111 177.630 C 335.468 178.025,334.711 178.433,334.430 178.536 C 334.148 178.639,333.918 178.839,333.918 178.981 C 333.918 179.124,333.730 179.240,333.500 179.240 C 333.271 179.240,332.903 179.404,332.684 179.605 C 332.176 180.071,331.340 180.608,330.409 181.066 C 330.007 181.264,329.514 181.583,329.313 181.774 C 328.776 182.285,328.778 240.723,329.315 241.169 C 329.516 241.336,330.043 241.564,330.484 241.675 C 330.925 241.786,331.287 241.961,331.287 242.066 C 331.287 242.170,331.714 242.437,332.237 242.660 C 335.992 244.260,336.662 244.134,324.561 244.102 C 318.531 244.086,313.893 244.015,314.254 243.946 C 314.616 243.876,314.912 243.697,314.912 243.547 C 314.912 243.397,315.043 243.275,315.203 243.275 C 315.675 243.275,317.836 242.277,317.836 242.060 C 317.836 241.949,318.231 241.773,318.713 241.667 C 319.196 241.561,319.591 241.367,319.591 241.237 C 319.591 241.106,319.935 240.913,320.357 240.807 C 320.778 240.701,321.300 240.456,321.516 240.263 C 322.204 239.649,322.665 239.345,323.995 238.626 C 324.708 238.240,325.917 237.518,326.681 237.022 L 328.070 236.120 328.070 220.685 L 328.070 205.250 310.516 205.330 C 299.239 205.381,292.886 205.514,292.752 205.702 C 292.638 205.863,292.050 206.245,291.447 206.552 L 290.351 207.110 290.351 213.496 C 290.351 218.812,290.420 219.883,290.765 219.883 C 290.993 219.883,291.230 220.036,291.293 220.224 C 291.372 220.460,293.084 220.606,296.885 220.701 L 302.363 220.839 302.278 222.909 C 302.197 224.880,302.151 225.002,301.316 225.429 C 300.833 225.675,300.395 225.976,300.341 226.096 C 300.288 226.217,300.090 226.317,299.903 226.318 C 299.715 226.319,299.208 226.504,298.777 226.729 C 298.346 226.954,297.556 227.231,297.023 227.345 C 296.489 227.460,295.868 227.702,295.642 227.885 C 294.943 228.449,287.183 228.290,286.111 227.688 C 285.629 227.418,285.069 227.196,284.868 227.195 C 284.667 227.194,284.503 227.061,284.503 226.901 C 284.503 226.740,284.313 226.608,284.082 226.608 C 283.519 226.608,280.994 224.098,280.994 223.540 C 280.994 223.298,280.874 223.099,280.727 223.099 C 280.581 223.099,280.372 222.573,280.263 221.930 C 280.154 221.287,279.956 220.760,279.822 220.760 C 279.688 220.760,279.487 219.905,279.375 218.860 C 279.263 217.814,279.055 216.959,278.913 216.959 C 278.547 216.959,278.580 204.467,278.947 204.240 C 279.108 204.140,279.240 203.654,279.240 203.158 C 279.240 201.790,280.382 199.727,282.041 198.099 C 284.180 196.000,284.712 195.615,285.761 195.411 C 286.275 195.311,286.787 195.090,286.899 194.919 C 287.022 194.730,288.380 194.608,290.351 194.608 C 292.322 194.608,293.679 194.730,293.803 194.919 C 293.914 195.090,294.441 195.314,294.973 195.418 C 295.505 195.521,296.107 195.772,296.311 195.976 C 296.514 196.179,297.097 196.674,297.607 197.076 C 298.116 197.478,298.534 197.976,298.535 198.182 C 298.537 198.388,298.727 198.629,298.959 198.718 C 299.190 198.807,299.464 199.263,299.567 199.732 C 299.670 200.201,299.875 200.585,300.023 200.585 C 300.171 200.585,300.292 200.773,300.292 201.002 C 300.292 201.446,303.489 201.323,303.801 200.868 C 303.882 200.751,305.033 200.559,306.360 200.443 C 307.686 200.327,308.772 200.129,308.772 200.004 C 308.772 199.879,309.890 199.684,311.257 199.570 C 312.624 199.456,313.743 199.261,313.743 199.137 C 313.743 199.013,314.742 198.821,315.963 198.710 C 317.184 198.599,318.402 198.388,318.668 198.241 C 318.934 198.094,319.810 197.701,320.614 197.368 C 321.418 197.036,322.305 196.636,322.584 196.481 C 322.863 196.326,323.291 196.199,323.534 196.199 C 323.777 196.199,323.977 196.082,323.977 195.938 C 323.977 195.795,324.338 195.590,324.781 195.483 C 326.688 195.022,327.193 194.637,327.193 193.642 C 327.193 193.118,327.078 192.690,326.938 192.690 C 326.798 192.690,326.599 192.164,326.496 191.520 C 326.393 190.877,326.179 190.351,326.020 190.351 C 325.861 190.351,325.731 190.124,325.731 189.847 C 325.731 189.193,323.677 185.088,323.350 185.088 C 323.212 185.088,323.099 184.946,323.099 184.773 C 323.099 184.600,322.705 184.063,322.222 183.581 C 321.740 183.098,321.345 182.614,321.345 182.504 C 321.345 182.230,320.148 181.003,319.017 180.117 C 318.504 179.715,317.841 179.182,317.544 178.932 C 317.246 178.683,316.500 178.222,315.885 177.909 C 315.269 177.596,314.722 177.240,314.669 177.120 C 314.615 176.999,314.438 176.901,314.274 176.901 C 314.111 176.901,313.563 176.712,313.056 176.482 C 311.590 175.815,309.395 175.146,308.674 175.146 C 308.310 175.146,307.886 175.021,307.733 174.867 C 307.100 174.234,289.181 173.319,289.181 173.919 " stroke="none" fill="#3c4394" fill-rule="evenodd"></path><path id="path2" d="M194.664 70.102 C 214.645 70.144,247.343 70.144,267.325 70.102 C 287.306 70.061,270.958 70.027,230.994 70.027 C 191.031 70.027,174.682 70.061,194.664 70.102 M229.559 73.439 C 229.382 73.948,229.297 74.424,229.370 74.497 C 229.444 74.570,229.590 74.286,229.696 73.865 C 229.802 73.444,230.005 73.099,230.149 73.099 C 230.292 73.099,230.409 72.968,230.409 72.807 C 230.409 72.163,229.862 72.570,229.559 73.439 M228.684 76.199 C 228.516 76.808,228.431 77.359,228.495 77.423 C 228.560 77.488,228.750 77.042,228.918 76.433 C 229.086 75.824,229.171 75.273,229.107 75.208 C 229.043 75.144,228.852 75.590,228.684 76.199 M226.190 84.378 C 226.083 84.806,226.051 85.213,226.120 85.282 C 226.189 85.351,226.334 85.057,226.441 84.628 C 226.549 84.200,226.580 83.793,226.511 83.724 C 226.442 83.655,226.298 83.949,226.190 84.378 M139.254 120.954 C 139.053 121.035,138.889 121.238,138.889 121.405 C 138.889 121.604,139.025 121.596,139.283 121.382 C 139.568 121.145,150.144 121.034,177.514 120.980 L 215.351 120.904 177.485 120.855 C 156.659 120.828,139.455 120.873,139.254 120.954 M244.812 121.053 C 244.918 121.440,249.353 121.491,282.480 121.493 L 320.029 121.495 282.619 121.419 C 253.155 121.359,245.154 121.265,244.950 120.978 C 244.760 120.710,244.724 120.729,244.812 121.053 M257.185 218.421 C 257.293 218.823,257.503 219.349,257.652 219.591 C 257.840 219.895,257.863 219.806,257.727 219.298 C 257.620 218.896,257.410 218.370,257.261 218.129 C 257.072 217.824,257.049 217.913,257.185 218.421 M258.062 220.760 C 258.170 221.162,258.380 221.689,258.529 221.930 C 258.717 222.235,258.740 222.145,258.604 221.637 C 258.497 221.235,258.287 220.709,258.138 220.468 C 257.949 220.163,257.926 220.252,258.062 220.760 " stroke="none" fill="#845c6e" fill-rule="evenodd"></path><path id="path3" d="M238.670 120.085 C 238.951 120.158,239.412 120.158,239.693 120.085 C 239.974 120.011,239.744 119.951,239.181 119.951 C 238.618 119.951,238.388 120.011,238.670 120.085 M242.763 120.962 C 243.045 121.035,243.505 121.035,243.787 120.962 C 244.068 120.888,243.838 120.828,243.275 120.828 C 242.712 120.828,242.482 120.888,242.763 120.962 M248.558 161.038 C 248.569 161.319,249.496 162.339,250.617 163.304 C 251.738 164.269,253.487 165.848,254.503 166.813 C 259.334 171.401,260.819 172.466,260.819 171.345 C 260.819 171.184,260.556 171.053,260.234 171.053 C 259.912 171.053,259.649 170.861,259.649 170.626 C 259.649 170.193,249.256 160.526,248.791 160.526 C 248.652 160.526,248.547 160.757,248.558 161.038 " stroke="none" fill="#0a9c62" fill-rule="evenodd"></path><path id="path4" d="M227.397 79.751 C 227.170 80.155,226.851 81.726,227.032 81.545 C 227.249 81.328,227.781 79.532,227.628 79.532 C 227.569 79.532,227.465 79.631,227.397 79.751 M139.282 120.692 C 138.979 120.885,176.924 120.880,204.825 120.683 C 210.775 120.641,198.538 120.577,177.632 120.542 C 156.725 120.506,139.468 120.573,139.282 120.692 M320.687 121.557 C 321.210 121.621,322.065 121.621,322.588 121.557 C 323.110 121.492,322.683 121.439,321.637 121.439 C 320.592 121.439,320.164 121.492,320.687 121.557 M258.940 223.684 C 259.047 224.086,259.257 224.613,259.406 224.854 C 259.594 225.159,259.617 225.069,259.482 224.561 C 259.374 224.159,259.164 223.633,259.015 223.392 C 258.827 223.087,258.804 223.176,258.940 223.684 M259.817 226.023 C 259.924 226.425,260.134 226.952,260.283 227.193 C 260.472 227.498,260.495 227.409,260.359 226.901 C 260.251 226.499,260.041 225.972,259.892 225.731 C 259.704 225.426,259.681 225.515,259.817 226.023 M260.686 228.436 C 260.795 228.798,261.005 229.222,261.152 229.379 C 261.299 229.536,261.271 229.240,261.090 228.721 C 260.720 227.659,260.378 227.418,260.686 228.436 M261.563 230.775 C 261.672 231.137,261.882 231.561,262.029 231.718 C 262.176 231.876,262.149 231.580,261.968 231.061 C 261.597 229.998,261.255 229.757,261.563 230.775 M139.839 244.664 C 162.957 244.705,200.786 244.705,223.904 244.664 C 247.021 244.622,228.107 244.589,181.871 244.589 C 135.636 244.589,116.721 244.622,139.839 244.664 " stroke="none" fill="#a4645c" fill-rule="evenodd"></path></g></svg>